<?xml version="1.0" standalone="no"?>
<!DOCTYPE svg PUBLIC "-//W3C//DTD SVG 20010904//EN"
 "http://www.w3.org/TR/2001/REC-SVG-20010904/DTD/svg10.dtd">
<svg version="1.0" xmlns="http://www.w3.org/2000/svg"
 width="87.000000pt" height="87.000000pt" viewBox="0 0 87.000000 87.000000"
 preserveAspectRatio="xMidYMid meet">
<metadata>
Created by potrace 1.11, written by Peter Selinger 2001-2013
</metadata>
<g transform="translate(0.000000,87.000000) scale(0.100000,-0.100000)"
fill="#000000" stroke="none">
<path d="M1 512 c0 -152 2 -284 4 -292 4 -13 31 -15 163 -14 l159 0 -4 -30
c-4 -37 -3 -36 -47 -39 -24 -2 -42 -11 -52 -25 l-15 -22 231 1 c189 0 230 3
230 14 0 18 -10 23 -56 31 -22 3 -39 7 -40 7 -1 1 -4 14 -8 28 -8 35 4 37 162
35 68 -1 127 1 133 4 6 4 8 117 7 291 l-3 284 -432 2 -432 2 0 -277z"/>
</g>
</svg>
